<mxfile host="app.diagrams.net" modified="2023-08-26T13:40:47.382Z" agent="Mozilla/5.0 (Windows NT 10.0; Win64; x64; rv:109.0) Gecko/20100101 Firefox/116.0" etag="MDoQXViRdv3buWIh8Xn1" version="21.6.9" type="github">
  <diagram name="Página-1" id="-p-PwY89knCyGD9dW_Aw">
    <mxGraphModel dx="1311" dy="655" grid="1" gridSize="10" guides="1" tooltips="1" connect="1" arrows="1" fold="1" page="1" pageScale="1" pageWidth="827" pageHeight="1169" math="0" shadow="0">
      <root>
        <mxCell id="0" />
        <mxCell id="1" parent="0" />
        <mxCell id="x8Udyu1cOT9vVQyKvV9C-10" value="" style="edgeStyle=orthogonalEdgeStyle;rounded=0;orthogonalLoop=1;jettySize=auto;html=1;" edge="1" parent="1" source="x8Udyu1cOT9vVQyKvV9C-1" target="x8Udyu1cOT9vVQyKvV9C-3">
          <mxGeometry relative="1" as="geometry" />
        </mxCell>
        <mxCell id="x8Udyu1cOT9vVQyKvV9C-1" value="Inicio" style="rounded=1;whiteSpace=wrap;html=1;arcSize=50;" vertex="1" parent="1">
          <mxGeometry x="360" y="10" width="120" height="30" as="geometry" />
        </mxCell>
        <mxCell id="x8Udyu1cOT9vVQyKvV9C-2" value="Ler primeiroValor" style="shape=parallelogram;perimeter=parallelogramPerimeter;whiteSpace=wrap;html=1;fixedSize=1;" vertex="1" parent="1">
          <mxGeometry x="360" y="60" width="120" height="40" as="geometry" />
        </mxCell>
        <mxCell id="x8Udyu1cOT9vVQyKvV9C-11" value="" style="edgeStyle=orthogonalEdgeStyle;rounded=0;orthogonalLoop=1;jettySize=auto;html=1;" edge="1" parent="1" source="x8Udyu1cOT9vVQyKvV9C-3" target="x8Udyu1cOT9vVQyKvV9C-5">
          <mxGeometry relative="1" as="geometry" />
        </mxCell>
        <mxCell id="x8Udyu1cOT9vVQyKvV9C-3" value="Ler segundoValor" style="shape=parallelogram;perimeter=parallelogramPerimeter;whiteSpace=wrap;html=1;fixedSize=1;" vertex="1" parent="1">
          <mxGeometry x="354" y="120" width="120" height="40" as="geometry" />
        </mxCell>
        <mxCell id="x8Udyu1cOT9vVQyKvV9C-12" style="edgeStyle=orthogonalEdgeStyle;rounded=0;orthogonalLoop=1;jettySize=auto;html=1;exitX=0.027;exitY=0.526;exitDx=0;exitDy=0;exitPerimeter=0;" edge="1" parent="1" source="x8Udyu1cOT9vVQyKvV9C-5">
          <mxGeometry relative="1" as="geometry">
            <mxPoint x="220" y="280" as="targetPoint" />
            <mxPoint x="289.00000000000017" y="240.00000000000006" as="sourcePoint" />
            <Array as="points">
              <mxPoint x="289" y="233" />
              <mxPoint x="289" y="230" />
              <mxPoint x="220" y="230" />
            </Array>
          </mxGeometry>
        </mxCell>
        <mxCell id="x8Udyu1cOT9vVQyKvV9C-13" style="edgeStyle=orthogonalEdgeStyle;rounded=0;orthogonalLoop=1;jettySize=auto;html=1;entryX=0.5;entryY=0;entryDx=0;entryDy=0;" edge="1" parent="1" source="x8Udyu1cOT9vVQyKvV9C-5" target="x8Udyu1cOT9vVQyKvV9C-7">
          <mxGeometry relative="1" as="geometry">
            <Array as="points">
              <mxPoint x="609" y="230" />
            </Array>
          </mxGeometry>
        </mxCell>
        <mxCell id="x8Udyu1cOT9vVQyKvV9C-5" value="primeiroValor == segundoValor" style="rhombus;whiteSpace=wrap;html=1;" vertex="1" parent="1">
          <mxGeometry x="279" y="180" width="270" height="100" as="geometry" />
        </mxCell>
        <mxCell id="x8Udyu1cOT9vVQyKvV9C-6" value="Escreva &lt;br&gt;&quot;Os valores são iguais!&quot;" style="shape=document;whiteSpace=wrap;html=1;boundedLbl=1;" vertex="1" parent="1">
          <mxGeometry x="159" y="280" width="120" height="80" as="geometry" />
        </mxCell>
        <mxCell id="x8Udyu1cOT9vVQyKvV9C-18" style="edgeStyle=orthogonalEdgeStyle;rounded=0;orthogonalLoop=1;jettySize=auto;html=1;exitX=0;exitY=0.5;exitDx=0;exitDy=0;exitPerimeter=0;" edge="1" parent="1" source="x8Udyu1cOT9vVQyKvV9C-7" target="x8Udyu1cOT9vVQyKvV9C-8">
          <mxGeometry relative="1" as="geometry">
            <Array as="points">
              <mxPoint x="470" y="310" />
            </Array>
          </mxGeometry>
        </mxCell>
        <mxCell id="x8Udyu1cOT9vVQyKvV9C-19" style="edgeStyle=orthogonalEdgeStyle;rounded=0;orthogonalLoop=1;jettySize=auto;html=1;entryX=0.667;entryY=0.01;entryDx=0;entryDy=0;entryPerimeter=0;" edge="1" parent="1" target="x8Udyu1cOT9vVQyKvV9C-9">
          <mxGeometry relative="1" as="geometry">
            <mxPoint x="744" y="310" as="sourcePoint" />
            <mxPoint x="730" y="410" as="targetPoint" />
            <Array as="points">
              <mxPoint x="750" y="310" />
            </Array>
          </mxGeometry>
        </mxCell>
        <mxCell id="x8Udyu1cOT9vVQyKvV9C-7" value="primeiroValor &amp;gt; segundoValor" style="rhombus;whiteSpace=wrap;html=1;" vertex="1" parent="1">
          <mxGeometry x="474" y="260" width="270" height="100" as="geometry" />
        </mxCell>
        <mxCell id="x8Udyu1cOT9vVQyKvV9C-8" value="Escreva &lt;br&gt;&quot;O maior valor é o &quot; + primeiroValor" style="shape=document;whiteSpace=wrap;html=1;boundedLbl=1;" vertex="1" parent="1">
          <mxGeometry x="414" y="410" width="120" height="80" as="geometry" />
        </mxCell>
        <mxCell id="x8Udyu1cOT9vVQyKvV9C-9" value="Escreva &lt;br&gt;&quot;O maior valor é o &quot; + segundoValor" style="shape=document;whiteSpace=wrap;html=1;boundedLbl=1;" vertex="1" parent="1">
          <mxGeometry x="670" y="410" width="120" height="80" as="geometry" />
        </mxCell>
        <mxCell id="x8Udyu1cOT9vVQyKvV9C-14" value="Sim" style="text;html=1;align=center;verticalAlign=middle;resizable=0;points=[];autosize=1;strokeColor=none;fillColor=none;" vertex="1" parent="1">
          <mxGeometry x="255" y="178" width="50" height="30" as="geometry" />
        </mxCell>
        <mxCell id="x8Udyu1cOT9vVQyKvV9C-15" value="Não" style="text;html=1;align=center;verticalAlign=middle;resizable=0;points=[];autosize=1;strokeColor=none;fillColor=none;" vertex="1" parent="1">
          <mxGeometry x="520" y="178" width="50" height="30" as="geometry" />
        </mxCell>
        <mxCell id="x8Udyu1cOT9vVQyKvV9C-16" value="Sim" style="text;html=1;align=center;verticalAlign=middle;resizable=0;points=[];autosize=1;strokeColor=none;fillColor=none;" vertex="1" parent="1">
          <mxGeometry x="484" y="260" width="50" height="30" as="geometry" />
        </mxCell>
        <mxCell id="x8Udyu1cOT9vVQyKvV9C-17" value="Não" style="text;html=1;align=center;verticalAlign=middle;resizable=0;points=[];autosize=1;strokeColor=none;fillColor=none;" vertex="1" parent="1">
          <mxGeometry x="694" y="260" width="50" height="30" as="geometry" />
        </mxCell>
      </root>
    </mxGraphModel>
  </diagram>
</mxfile>
